<?xml version="1.0" encoding="UTF-8"?>
<svg width="234px" height="184px" viewBox="0 0 234 184" version="1.1" xmlns="http://www.w3.org/2000/svg" xmlns:xlink="http://www.w3.org/1999/xlink">
    <!-- Generator: sketchtool 61 (101010) - https://sketch.com -->
    <title>8EA14E79-7BDE-4B4D-B455-402ED32CFF8D</title>
    <desc>Created with sketchtool.</desc>
    <defs>
        <polygon id="path-1" points="0.0343333333 0.2484624 11.99 0.2484624 11.99 37 0.0343333333 37"></polygon>
        <polygon id="path-3" points="0.066972973 0.2484624 11.6995135 0.2484624 11.6995135 37 0.066972973 37"></polygon>
        <polygon id="path-5" points="0.100312691 0.142941377 12.77315 0.142941377 12.77315 3.8308453 0.100312691 3.8308453"></polygon>
        <polygon id="path-7" points="0 0.312719914 12.9983238 0.312719914 12.9983238 4.00046071 0 4.00046071"></polygon>
    </defs>
    <g id="Xplain-Student" stroke="none" stroke-width="1" fill="none" fill-rule="evenodd">
        <g id="Sin-métodos-de-pago" transform="translate(-93.000000, -178.000000)">
            <g id="Group" transform="translate(93.000000, 178.000000)">
                <g id="Blob-" opacity="0.501813616" transform="translate(29.000000, 0.000000)" fill-opacity="0.36">
                    <path d="M69.7601917,29.0898703 C33.6933286,55.5690784 54.5749607,11.2162589 27.0755727,6.37063865 C-0.219426482,1.56108272 -2.60146546,44.7184741 11.4007718,68.5944176 C18.9449653,81.4585278 31.3487431,89.7212478 44.9266863,92.4205073 C63.856459,96.1839312 79.5071827,109.494073 85.7605701,127.720638 C87.9751387,134.174835 89.8419253,141.794761 91.0974182,150.779564 C95.7611745,184.15741 145.601809,189.639726 174.740052,172.614953 C203.878029,155.590181 213.672104,118.211575 196.615806,89.1272463 C182.124266,64.4167838 152.912988,53.6446726 126.584823,61.4048779 C126.584823,61.4048779 107.230756,1.58017563 69.7601917,29.0898703" id="Fill-12" fill="#FCFCFC"></path>
                    <path d="M66.7601917,23.0898442 C30.6933286,49.5690224 51.5749607,5.21625306 24.0755727,0.370638227 C-3.21942648,-4.43891227 -5.60146546,38.7184304 8.40077175,62.594347 C15.9449653,75.4584427 28.3487431,83.7211534 41.9266863,86.4204099 C60.8567265,90.1838294 76.5071827,103.493956 82.7605701,121.7205 C84.9751387,128.174691 86.8419253,135.794343 88.0974182,144.779666 C92.761442,178.157209 142.601809,183.639784 171.740052,166.61503 C200.878029,149.590277 210.672104,112.211449 193.615806,83.1271526 C179.124266,58.4167179 149.912988,47.6446188 123.584823,55.4048154 C123.584823,55.4048154 104.230489,-4.41981939 66.7601917,23.0898442" id="Fill-15" fill="#3F50EF"></path>
                </g>
                <g id="Blob" opacity="0.5" transform="translate(10.000000, 98.000000)" fill-opacity="0.36">
                    <path d="M80.7866458,40.7753675 C80.7866458,63.0950671 62.823129,81.1887807 40.6641734,81.1887807 C18.5052178,81.1887807 0.541700888,63.0950671 0.541700888,40.7753675 C0.541700888,18.4556679 18.5052178,0.361954288 40.6641734,0.361954288 C62.823129,0.361954288 80.7866458,18.4556679 80.7866458,40.7753675" id="Fill-23" fill="#FCFCFC"></path>
                    <path d="M84.7202202,42.7564905 C84.7202202,65.0761902 66.7567034,83.1699037 44.5977478,83.1699037 C22.4387922,83.1699037 4.47527531,65.0761902 4.47527531,42.7564905 C4.47527531,20.4367909 22.4387922,2.34307731 44.5977478,2.34307731 C66.7567034,2.34307731 84.7202202,20.4367909 84.7202202,42.7564905" id="Fill-25" fill="#3F50EF"></path>
                </g>
                <g id="Blob" opacity="0.5" transform="translate(15.000000, 72.000000)" fill-opacity="0.36">
                    <path d="M25.5,12.5 C25.5,19.4035556 19.9035363,25 13,25 C6.0964637,25 0.5,19.4035556 0.5,12.5 C0.5,5.59644439 6.0964637,0 13,0 C19.9035363,0 25.5,5.59644439 25.5,12.5" id="Fill-23" fill="#FCFCFC"></path>
                    <path d="M27.5,13.5 C27.5,20.4035556 21.9035363,26 15,26 C8.0964637,26 2.5,20.4035556 2.5,13.5 C2.5,6.59644439 8.0964637,1 15,1 C21.9035363,1 27.5,6.59644439 27.5,13.5" id="Fill-25" fill="#3F50EF"></path>
                </g>
                <g id="Blob" opacity="0.5" transform="translate(95.000000, 164.000000)" fill-opacity="0.36">
                    <path d="M20,9.5 C20,14.7467023 15.522829,19 10,19 C4.47717096,19 0,14.7467023 0,9.5 C0,4.25329774 4.47717096,0 10,0 C15.522829,0 20,4.25329774 20,9.5" id="Fill-23" fill="#FCFCFC"></path>
                    <path d="M22,10.5 C22,15.7467023 17.522829,20 12,20 C6.47717096,20 2,15.7467023 2,10.5 C2,5.25329774 6.47717096,1 12,1 C17.522829,1 22,5.25329774 22,10.5" id="Fill-25" fill="#3F50EF"></path>
                </g>
                <g id="Blob" opacity="0.5" transform="translate(0.000000, 98.000000)" fill-opacity="0.36">
                    <path d="M14,6.5 C14,10.0898489 10.8659803,13 7,13 C3.13401967,13 0,10.0898489 0,6.5 C0,2.91015108 3.13401967,0 7,0 C10.8659803,0 14,2.91015108 14,6.5" id="Fill-23" fill="#FCFCFC"></path>
                    <path d="M15,7.5 C15,11.0898489 11.8659803,14 8,14 C4.13401967,14 1,11.0898489 1,7.5 C1,3.91015108 4.13401967,1 8,1 C11.8659803,1 15,3.91015108 15,7.5" id="Fill-25" fill="#3F50EF"></path>
                </g>
                <g id="Group-45" transform="translate(52.000000, 60.000000)">
                    <g id="Group-3" transform="translate(27.000000, 59.000000)">
                        <mask id="mask-2" fill="white">
                            <use xlink:href="#path-1"></use>
                        </mask>
                        <g id="Clip-2"></g>
                        <path d="M11.99,5.5569264 L11.99,31.6916544 C11.99,34.6111024 9.3,37.0001184 6.012,37.0001184 C2.72433333,37.0001184 0.0343333333,34.6111024 0.0343333333,31.6916544 L0.0343333333,5.5569264 C0.0343333333,2.6374784 2.72433333,0.2484624 6.012,0.2484624 C9.3,0.2484624 11.99,2.6374784 11.99,5.5569264" id="Fill-1" fill="#273644" mask="url(#mask-2)"></path>
                    </g>
                    <g id="Group-6" transform="translate(49.000000, 59.000000)">
                        <mask id="mask-4" fill="white">
                            <use xlink:href="#path-3"></use>
                        </mask>
                        <g id="Clip-5"></g>
                        <path d="M11.6995135,5.5569264 L11.6995135,31.6916544 C11.6995135,34.6111024 9.08221622,37.0001184 5.88308108,37.0001184 C2.68427027,37.0001184 0.066972973,34.6111024 0.066972973,31.6916544 L0.066972973,5.5569264 C0.066972973,2.6374784 2.68427027,0.2484624 5.88308108,0.2484624 C9.08221622,0.2484624 11.6995135,2.6374784 11.6995135,5.5569264" id="Fill-4" fill="#273644" mask="url(#mask-4)"></path>
                    </g>
                    <path d="M59.4640072,51.810532 L70.1298151,75.504216 C71.4245779,78.3793424 75.049849,79.7611169 78.1862976,78.5745285 C81.3230708,77.3882376 82.8301111,74.0647188 81.5359974,71.1895923 L70.8701896,47.4959084 C69.5754268,44.620782 65.9501557,43.2387099 62.8133825,44.4255959 C59.6769339,45.6118868 58.1698936,48.9351081 59.4640072,51.810532" id="Fill-7" fill="#273644"></path>
                    <path d="M28.5730948,50.3793753 L17.9169466,74.6970248 C16.7266725,77.4134198 13.3925131,78.7190294 10.5076331,77.5981478 C7.62275302,76.4769682 6.23631473,73.3371886 7.42690517,70.6207936 L18.0830534,46.3028461 C19.2733275,43.5864511 22.6078033,42.2808415 25.4923669,43.4020211 C28.377247,44.5229027 29.7636853,47.6629803 28.5730948,50.3793753" id="Fill-9" fill="#273644"></path>
                    <path d="M75,61.9998531 C75,75.2547441 61.1210738,86 44,86 C26.8789262,86 13,75.2547441 13,61.9998531 C13,48.7452559 26.8789262,38 44,38 C61.1210738,38 75,48.7452559 75,61.9998531" id="Fill-11" fill="#2D3D50"></path>
                    <path d="M79.6015978,18.849916 C79.6015978,18.849916 87.5100345,10.6499033 82.117991,2.10818613 C76.7256288,-6.43323336 53,13.7389349 53,13.7389349 L76.0067959,25 L79.6015978,18.849916 Z" id="Fill-13" fill="#273644"></path>
                    <path d="M83.2391859,4 C83.2391859,4 72.5761887,6.37460966 67.9042322,10.077554 C63.2322757,13.78079 78.1850947,21 78.1850947,21 C78.1850947,21 82.6664635,15.2873443 83.3405555,12.5 C84.0149673,9.71236402 84.4444291,7.97362822 83.2391859,4" id="Fill-15" fill="#A3ABF7"></path>
                    <path d="M10.114705,17.3419423 C10.114705,17.3419423 2.71640027,9.79776443 7.76058112,1.93958646 C12.8054099,-5.91859151 35,12.6395107 35,12.6395107 L13.4779241,23 L10.114705,17.3419423 Z" id="Fill-17" fill="#273644"></path>
                    <path d="M7.71584895,3 C7.71584895,3 17.7516336,5.23480307 22.1489917,8.72027017 C26.5460229,12.2054337 12.4728423,19 12.4728423,19 C12.4728423,19 8.25464792,13.6236624 7.62038215,11 C6.98611637,8.37633756 6.5816902,6.73984974 7.71584895,3" id="Fill-19" fill="#A3ABF7"></path>
                    <path d="M81,30.5001492 C81,46.2401068 64.434361,59 43.9998383,59 C23.565639,59 7,46.2401068 7,30.5001492 C7,14.7598932 23.565639,2 43.9998383,2 C64.434361,2 81,14.7598932 81,30.5001492" id="Fill-21" fill="#2D3D50"></path>
                    <path d="M39,33.0001464 C39,38.5229519 34.0749971,43 28,43 C21.9246808,43 17,38.5229519 17,33.0001464 C17,27.4773409 21.9246808,23 28,23 C34.0749971,23 39,27.4773409 39,33.0001464" id="Fill-23" fill="#FFFFFF"></path>
                    <path d="M70,33.0001464 C70,38.5229519 65.0753192,43 59.0003221,43 C52.9250029,43 48,38.5229519 48,33.0001464 C48,27.4773409 52.9250029,23 59.0003221,23 C65.0753192,23 70,27.4773409 70,33.0001464" id="Fill-25" fill="#FFFFFF"></path>
                    <path d="M66,32.0001514 C66,36.4184753 62.19463,40 57.5001608,40 C52.80537,40 49,36.4184753 49,32.0001514 C49,27.5818275 52.80537,24 57.5001608,24 C62.19463,24 66,27.5818275 66,32.0001514" id="Fill-27" fill="#2D3D50"></path>
                    <path d="M38,32.0001514 C38,36.4184753 34.19463,40 29.5001608,40 C24.8056917,40 21,36.4184753 21,32.0001514 C21,27.5818275 24.8056917,24 29.5001608,24 C34.19463,24 38,27.5818275 38,32.0001514" id="Fill-29" fill="#2D3D50"></path>
                    <path d="M47,37.0001502 C47,38.1049035 45.4329376,39 43.5,39 C41.5670624,39 40,38.1049035 40,37.0001502 C40,35.8953969 41.5670624,35 43.5,35 C45.4329376,35 47,35.8953969 47,37.0001502" id="Fill-31" fill="#A3ABF7"></path>
                    <path d="M41.7367941,42.1786642 C41.7745031,40.2165318 46.2251661,40.2171798 46.263206,42.1786642 C46.2840452,43.2718337 48.0209781,43.2757217 47.999808,42.1786642 C47.9181051,37.9404453 40.081895,37.9404453 40.000192,42.1786642 C39.979022,43.2737777 41.715624,43.2737777 41.7367941,42.1786642" id="Fill-33" fill="#A3ABF7"></path>
                    <path d="M73.7486317,41.4622163 C73.9377564,41.4628011 74.1278113,41.4777157 74.3160059,41.4938001 C74.4099482,41.5022809 74.5035804,41.5119316 74.5965926,41.5221671 C74.6272866,41.5253839 74.821682,41.5499491 74.6911549,41.532695 C74.5677588,41.5169031 74.7671149,41.5438078 74.8015294,41.5487794 C75.0926574,41.5908911 75.3825453,41.6426535 75.6699529,41.7031892 C77.2815435,42.0415457 78.7356336,42.6188281 80.1026023,43.498204 C81.0838806,44.1292958 81.9414527,44.9147975 82.6833797,45.7871548 C82.945674,46.0956821 83.5065373,46.0450895 83.779683,45.7871548 C84.1027452,45.4827217 84.0425974,45.0624812 83.779683,44.753369 C81.508016,42.0824877 78.1158626,40.4331096 74.5277636,40.0523489 C74.2701199,40.0248592 74.0087557,40.0005865 73.7486317,40 C72.7512313,39.9982469 72.7496811,41.4604616 73.7486317,41.4622163" id="Fill-35" fill="#A3ABF7"></path>
                    <g id="Group-39" transform="translate(73.000000, 35.000000)">
                        <mask id="mask-6" fill="white">
                            <use xlink:href="#path-5"></use>
                        </mask>
                        <g id="Clip-38"></g>
                        <path d="M1.1290175,2.39453333 C2.2177675,1.9932 3.2480175,1.8722 4.3370925,1.82353333 C6.8886675,1.7102 9.3814175,2.34153333 11.5667175,3.70453333 C12.4627425,4.26286667 13.2804425,2.8222 12.3873425,2.2652 C10.0021675,0.777533333 7.2286175,0.0495333333 4.4401175,0.152533333 C3.1986175,0.198866667 1.8752175,0.3532 0.6970925,0.787533333 C0.2840175,0.939533333 0.0067925,1.35486667 0.1296425,1.81253333 C0.2391675,2.22153333 0.7143175,2.54753333 1.1290175,2.39453333" id="Fill-37" fill="#A3ABF7" mask="url(#mask-6)"></path>
                    </g>
                    <path d="M12.2511138,40 C11.4715281,40.0014639 10.6748871,40.134239 9.91731831,40.2933352 C8.1972062,40.6542262 6.52174816,41.3216114 5.0692504,42.2644903 C3.99507186,42.9619985 3.03438909,43.794329 2.21821187,44.7535854 C1.95648938,45.0612494 1.8994314,45.4870657 2.21821187,45.7874183 C2.48923728,46.0433175 3.05113437,46.0971295 3.31471744,45.7874183 C4.57309403,44.3081746 6.16451558,43.1526799 8.01052736,42.3984353 C8.62266028,42.1486776 9.38612089,41.9161749 10.0863216,41.7564938 C10.3781235,41.6898138 10.6720962,41.6321999 10.9682395,41.5842371 C11.0897978,41.5646425 11.2119763,41.548265 11.3338447,41.5298402 C11.3583425,41.5263307 11.1896493,41.5450479 11.3552415,41.527793 C11.4166408,41.5210665 11.47742,41.5137551 11.5385092,41.5076135 C11.7748037,41.4839246 12.0132689,41.4628677 12.2511138,41.4622828 C13.2486982,41.4605281 13.2505588,39.9982468 12.2511138,40" id="Fill-40" fill="#A3ABF7"></path>
                    <g id="Group-44" transform="translate(0.000000, 36.000000)">
                        <mask id="mask-8" fill="white">
                            <use xlink:href="#path-7"></use>
                        </mask>
                        <g id="Clip-43"></g>
                        <path d="M12.3858333,0.957033333 C11.1775,0.5227 9.81983333,0.368366667 8.54616667,0.322366667 C5.6865,0.219033333 2.84216667,0.947366667 0.395833333,2.4347 C-0.5195,2.99136667 0.317166667,4.43336667 1.23716667,3.8737 C3.4785,2.51103333 6.0355,1.88003333 8.65216667,1.99303333 C9.7675,2.0417 10.8265,2.16303333 11.9425,2.56403333 C12.3661667,2.71636667 12.8548333,2.3927 12.9678333,1.98203333 C13.0948333,1.51936667 12.8105,1.1097 12.3858333,0.957033333" id="Fill-42" fill="#A3ABF7" mask="url(#mask-8)"></path>
                    </g>
                </g>
                <ellipse id="Oval" fill="#2C3D4F" opacity="0.484863281" cx="96" cy="155.5" rx="36" ry="4.5"></ellipse>
            </g>
        </g>
    </g>
</svg>